<svg width="640" height="480" viewBox="0 0 640 480" fill="none" xmlns="http://www.w3.org/2000/svg">
  <rect width="640" height="480" rx="48" fill="#EAF7F4"/>
  <path d="M115 278C162 278 210 242 258 240C308 237 328 296 386 296H510C530 296 546 312 546 332C546 352 530 368 510 368H157C120 368 92 338 92 302C92 289 102 278 115 278Z" fill="#0F1720"/>
  <path d="M225 206C234 186 258 175 279 182L393 219C407 224 418 236 422 250L435 296H364L342 261L258 241L240 296H174L225 206Z" fill="#1CA190"/>
  <circle cx="214" cy="330" r="22" fill="#EAF7F4"/>
  <circle cx="424" cy="330" r="22" fill="#EAF7F4"/>
</svg>
